<svg width="117.592" height="72.365" viewBox="0 0 117.592 72.365" xmlns="http://www.w3.org/2000/svg"><g id="svgGroup" stroke-linecap="round" fill-rule="evenodd" font-size="9pt" stroke="#ffffff" stroke-width="0.25mm" fill="#ffffff" style="stroke:#ffffff;stroke-width:0.25mm;fill:#ffffff"><path d="M 117.592 42.335 L 117.592 66.407 A 11.491 11.491 0 0 1 116.892 66.861 Q 116.071 67.356 114.784 68.006 A 73.587 73.587 0 0 1 113.417 68.678 A 22.705 22.705 0 0 1 111.319 69.547 Q 108.931 70.41 105.604 71.141 A 72.264 72.264 0 0 1 105.141 71.241 A 44.72 44.72 0 0 1 100.808 71.926 Q 96.883 72.364 91.908 72.364 A 54.19 54.19 0 0 1 83.191 71.699 Q 77.859 70.83 73.476 68.824 A 24.819 24.819 0 0 1 61.651 57.474 A 30.629 30.629 0 0 1 61.586 57.35 Q 57.436 49.415 57.436 36.329 A 54.531 54.531 0 0 1 58.398 25.749 Q 59.621 19.568 62.401 14.777 A 28.636 28.636 0 0 1 66.371 9.449 Q 75.307 0.001 91.274 0.001 A 65.197 65.197 0 0 1 95.734 0.144 Q 100.31 0.459 103.432 1.466 Q 106.447 2.439 108.494 3.627 A 13.171 13.171 0 0 1 110.317 4.884 Q 112.66 6.837 113.588 8.302 A 6.77 6.77 0 0 1 113.816 8.686 Q 113.916 8.869 113.989 9.035 A 3.15 3.15 0 0 1 114.076 9.254 A 2.275 2.275 0 0 1 114.151 9.524 Q 114.237 9.916 114.272 10.548 A 10.719 10.719 0 0 1 114.329 11.171 Q 114.385 12.02 114.363 13.247 A 48.38 48.38 0 0 1 114.345 13.966 A 36.355 36.355 0 0 1 114.239 15.829 Q 114.167 16.677 114.057 17.43 A 20.764 20.764 0 0 1 113.979 17.921 A 5.053 5.053 0 0 1 113.866 18.412 Q 113.674 19.081 113.344 19.337 A 0.855 0.855 0 0 1 113.193 19.454 Q 113.032 19.556 112.777 19.642 A 3.596 3.596 0 0 1 112.66 19.679 A 2.645 2.645 0 0 1 112.327 19.753 Q 111.981 19.809 111.489 19.822 A 11.55 11.55 0 0 1 111.196 19.825 Q 109.633 19.825 107.558 19.703 A 79.164 79.164 0 0 1 106.589 19.641 Q 105.239 19.545 104.506 19.435 A 8.135 8.135 0 0 1 103.907 19.313 Q 103.332 19.172 102.979 18.973 A 1.763 1.763 0 0 1 102.822 18.873 A 3.473 3.473 0 0 1 102.444 18.556 Q 102.26 18.381 102.068 18.158 A 8.384 8.384 0 0 1 101.723 17.726 A 12.903 12.903 0 0 0 101.245 17.13 Q 101.007 16.848 100.723 16.54 A 28.717 28.717 0 0 0 100.112 15.895 Q 99.369 15.135 98.076 14.49 A 14.218 14.218 0 0 0 97.011 14.015 A 9.633 9.633 0 0 0 95.397 13.542 Q 93.731 13.196 91.424 13.185 A 31.904 31.904 0 0 0 91.274 13.185 A 17.822 17.822 0 0 0 85.522 14.071 A 14.609 14.609 0 0 0 78.627 19.02 A 19.195 19.195 0 0 0 75.49 25.102 Q 74.627 27.796 74.277 31.06 A 44.398 44.398 0 0 0 74.037 35.792 Q 74.037 43.215 76.03 48.329 A 18.579 18.579 0 0 0 78.798 53.224 A 15.456 15.456 0 0 0 88.722 58.886 A 23.073 23.073 0 0 0 92.494 59.181 A 49.876 49.876 0 0 0 94.593 59.14 Q 96.708 59.05 98.126 58.767 A 9.827 9.827 0 0 0 99.111 58.522 A 50.855 50.855 0 0 0 99.966 58.248 Q 101.107 57.872 101.621 57.625 A 2.842 2.842 0 0 0 101.821 57.521 L 101.821 42.335 A 6.598 6.598 0 0 1 101.864 41.555 Q 101.964 40.716 102.297 40.204 A 1.98 1.98 0 0 1 102.309 40.187 Q 104.109 37.546 107.09 34.676 A 56.773 56.773 0 0 1 108.461 33.4 A 4.157 4.157 0 0 1 108.847 33.123 Q 109.341 32.814 109.731 32.814 A 1.346 1.346 0 0 1 110.272 32.934 Q 110.469 33.02 110.672 33.168 A 3.176 3.176 0 0 1 110.951 33.4 Q 113.1 35.255 114.565 36.94 A 40.617 40.617 0 0 1 116.089 38.796 A 31.773 31.773 0 0 1 117.104 40.187 Q 117.476 40.782 117.564 41.717 A 6.562 6.562 0 0 1 117.592 42.335 Z M 18.194 72.219 A 56.663 56.663 0 0 0 22.377 72.364 A 41.726 41.726 0 0 0 27.794 72.025 A 32.331 32.331 0 0 0 35.829 69.947 Q 41.762 67.53 45.204 62.599 Q 48.647 57.667 48.647 50.196 Q 48.647 44.191 46.474 40.529 A 15.588 15.588 0 0 0 44.204 37.577 A 18.146 18.146 0 0 0 40.2 34.523 A 42.423 42.423 0 0 0 39.316 34.032 Q 37.364 32.977 35.075 31.994 A 73.342 73.342 0 0 0 30.385 30.177 Q 25.472 28.422 22.45 26.932 A 27.112 27.112 0 0 1 20.375 25.807 A 8.184 8.184 0 0 1 19.277 25.014 A 5.749 5.749 0 0 1 17.201 20.46 Q 17.201 17.579 19.35 15.26 Q 20.928 13.557 24.112 13.104 A 17.922 17.922 0 0 1 26.625 12.941 A 20.539 20.539 0 0 1 27.275 12.951 Q 29.274 13.014 30.623 13.477 A 5.145 5.145 0 0 1 32.021 14.186 A 29.218 29.218 0 0 1 32.338 14.424 Q 33.282 15.141 33.91 15.748 A 8.211 8.211 0 0 1 34.487 16.359 Q 35.024 16.896 35.366 17.14 Q 35.625 17.325 36.276 17.51 A 11.046 11.046 0 0 0 36.733 17.628 A 12.879 12.879 0 0 0 36.939 17.673 Q 39.22 18.15 43.067 18.129 A 65.193 65.193 0 0 0 44.057 18.116 Q 44.538 18.116 44.85 18.011 A 1.065 1.065 0 0 0 45.131 17.872 A 0.896 0.896 0 0 0 45.153 17.856 Q 45.526 17.558 45.668 16.798 A 60.074 60.074 0 0 0 45.706 16.489 Q 45.835 15.415 45.911 14.446 A 35.754 35.754 0 0 0 46.01 12.599 A 34.468 34.468 0 0 0 46.022 11.692 Q 46.022 11.153 46.004 10.646 A 23.384 23.384 0 0 0 45.912 9.23 Q 45.88 8.877 45.817 8.619 A 2.049 2.049 0 0 0 45.741 8.375 A 2.518 2.518 0 0 0 45.665 8.2 Q 45.57 8 45.407 7.721 A 14.36 14.36 0 0 0 45.229 7.423 Q 44.753 6.617 43.425 5.441 A 27.817 27.817 0 0 0 42.446 4.615 Q 40.297 2.882 36.415 1.49 A 19.46 19.46 0 0 0 34.372 0.887 Q 31.073 0.099 26.625 0.099 A 43.138 43.138 0 0 0 20.263 0.547 A 31.896 31.896 0 0 0 13.1 2.443 Q 7.241 4.786 3.92 9.376 A 16.907 16.907 0 0 0 1.169 15.526 A 23.239 23.239 0 0 0 0.6 20.802 A 30.796 30.796 0 0 0 0.654 22.656 Q 0.818 25.365 1.471 27.642 A 15.4 15.4 0 0 0 4.701 33.693 Q 8.803 38.331 18.08 41.456 A 101.162 101.162 0 0 1 19.142 41.813 Q 22.312 42.9 24.578 43.927 A 29.296 29.296 0 0 1 26.723 44.996 Q 28.721 46.108 29.901 47.22 A 7.044 7.044 0 0 1 30.898 48.365 A 7.58 7.58 0 0 1 31.045 48.59 A 6.204 6.204 0 0 1 32.045 51.954 A 9.418 9.418 0 0 1 31.985 53.037 A 6.536 6.536 0 0 1 29.604 57.521 Q 27.162 59.523 22.377 59.523 A 29.677 29.677 0 0 1 21.728 59.516 Q 17.238 59.417 15.004 57.936 Q 12.612 56.349 11.635 55.323 Q 10.756 54.396 10.121 54.005 A 2.234 2.234 0 0 0 9.778 53.833 Q 9.229 53.614 8.461 53.614 Q 7.729 53.614 6.269 53.766 A 72.739 72.739 0 0 0 5.214 53.883 A 50.084 50.084 0 0 0 3.816 54.067 Q 3.163 54.163 2.602 54.267 A 20.553 20.553 0 0 0 1.528 54.493 Q 1.052 54.612 0.739 54.804 A 1.434 1.434 0 0 0 0.405 55.079 A 0.912 0.912 0 0 0 0.295 55.241 Q 0.162 55.487 0.102 55.894 A 4.502 4.502 0 0 0 0.063 56.3 Q -0.084 58.4 0.112 59.987 A 67.681 67.681 0 0 0 0.12 60.055 Q 0.25 61.103 0.38 61.88 A 21.663 21.663 0 0 0 0.502 62.55 A 4.844 4.844 0 0 0 0.576 62.863 A 4.112 4.112 0 0 0 0.991 63.868 Q 1.332 64.454 1.772 65.089 A 11.501 11.501 0 0 0 2.453 65.869 Q 3.668 67.144 5.556 68.434 A 14.671 14.671 0 0 0 6.801 69.193 Q 7.913 69.8 9.271 70.321 A 30.52 30.52 0 0 0 12.099 71.241 A 25.818 25.818 0 0 0 14.551 71.783 Q 16.235 72.074 18.194 72.219 Z"/></g></svg>