<?xml version="1.0" standalone="no"?>
<!DOCTYPE svg PUBLIC "-//W3C//DTD SVG 20010904//EN"
 "http://www.w3.org/TR/2001/REC-SVG-20010904/DTD/svg10.dtd">
<svg version="1.0" xmlns="http://www.w3.org/2000/svg"
 width="400.000000pt" height="240.000000pt" viewBox="0 0 400.000000 240.000000"
 preserveAspectRatio="xMidYMid meet">

<g transform="translate(0.000000,240.000000) scale(0.100000,-0.100000)"
fill="#000000" stroke="none">
<path d="M1480 1656 c-118 -31 -190 -125 -190 -245 1 -110 51 -186 155 -232
43 -20 73 -24 220 -28 147 -5 175 -9 205 -27 36 -21 38 -24 86 -134 35 -78
118 -166 191 -204 90 -45 160 -56 371 -56 l192 0 0 260 0 260 -170 0 -170 0 0
-75 0 -75 90 0 90 0 0 -106 0 -106 -127 4 c-219 8 -296 56 -359 220 -31 82
-82 139 -153 171 -39 19 -71 22 -213 27 -149 4 -170 7 -195 26 -59 44 -51 123
17 156 29 15 63 18 202 18 l166 0 22 35 c12 19 45 55 73 80 l52 45 -255 -1
c-167 0 -271 -5 -300 -13z"/>
<path d="M2261 1659 c-120 -23 -244 -113 -299 -217 l-31 -59 33 -16 c19 -8 50
-30 70 -48 20 -17 38 -30 40 -28 2 2 15 27 29 55 30 59 82 108 146 138 41 19
68 21 254 24 l207 3 0 80 0 79 -202 -1 c-112 -1 -223 -5 -247 -10z"/>
<path d="M1830 904 c-25 -9 -103 -13 -281 -13 l-247 -1 0 -61 c0 -111 -28
-101 282 -97 l271 3 57 28 57 28 -45 62 c-25 34 -49 63 -52 63 -4 1 -23 -4
-42 -12z"/>
</g>
</svg>
